<?xml version="1.0" encoding="UTF-8"?> <!-- Creator: CorelDRAW 2017 --> <svg xmlns="http://www.w3.org/2000/svg" xmlns:xlink="http://www.w3.org/1999/xlink" xml:space="preserve" width="1803px" height="819px" style="shape-rendering:geometricPrecision; text-rendering:geometricPrecision; image-rendering:optimizeQuality; fill-rule:evenodd; clip-rule:evenodd" viewBox="0 0 1804.97 819.65"> <defs> <style type="text/css"> <![CDATA[ .fil1 {fill:#1B7FC3} .fil0 {fill:#1B7FC3;fill-rule:nonzero} ]]> </style> </defs> <g id="Слой_x0020_1"> <metadata id="CorelCorpID_0Corel-Layer"></metadata> <path class="fil0" d="M26.24 693.98c10.01,28.93 18.49,58.64 29.05,87.4 9.16,-29.02 18.84,-58.65 28.87,-87.4l15.28 0c10,28.72 19.48,58.83 30.65,87.07 8.56,-28.71 18.26,-58.42 27.21,-87.07l25.95 0c-14.37,40.29 -29.13,81.56 -43.75,121.76l-19.91 0c-10.19,-24.76 -19.15,-50.55 -27.76,-75.87 -8.34,25.39 -17.11,51.19 -27.4,75.87l-19.21 0c-15.52,-40.37 -29.61,-81.41 -45.22,-121.76l26.24 0z"></path> <path class="fil1" d="M546.5 690.57c37.13,-0.31 62.7,28.9 62.7,64.54 0,35.64 -23.7,64.54 -62.7,64.54 -39.01,0 -62.71,-28.9 -62.71,-64.54 0,-35.64 25.57,-64.22 62.71,-64.54zm0.06 20.5c22.16,0 40.13,19.39 40.13,43.31 0,23.92 -17.97,43.31 -40.13,43.31 -22.17,0 -40.13,-19.39 -40.13,-43.31 0,-23.92 17.96,-43.31 40.13,-43.31z"></path> <polygon class="fil0" points="445.5,0 961.12,0 809.55,268.64 699.91,268.64 796.78,435.69 996.75,91.62 1050.4,0 1156.95,0 951.61,355.21 1000.88,435.48 1242.77,11.18 1249.99,0 1357.34,0 1235.26,212.69 1001.71,616.92 898.87,446.78 797.03,619.59 545.05,175.64 757.81,175.43 799.91,93.7 498.92,94.36 447.14,3.14 "></polygon> <path class="fil0" d="M1703.03 717.63c13.27,-20.42 39.46,-29.73 63.16,-25.9 16.91,2.73 24.51,9.32 36.42,20.02 -5.59,3.76 -10.8,7.84 -16.09,11.93 -15.15,-10.8 -36.43,-14.39 -52.86,-4.46 -25.71,15.43 -24.95,60.03 2.58,73.18 16.94,8.42 36.76,3.37 51.49,-7.22 4.92,4.29 12.19,10.64 17.24,14.89 -14.19,11.04 -33.57,17.69 -52.36,17.7 -13.54,0.01 -26.78,-3.15 -37.56,-11.94 -26.12,-20.28 -29.92,-61.33 -12.02,-88.2z"></path> <polygon class="fil0" points="1651.55,693.43 1674.87,693.44 1674.83,815.72 1651.51,815.76 "></polygon> <polygon class="fil0" points="1573.49,692.97 1573.49,692.97 1573.49,794.23 1635.65,794.23 1635.65,815.74 1549.71,815.74 1549.71,693.43 1573.49,693.43 "></polygon> <path class="fil0" d="M1453.46 762.61l-0.12 31.37c15.73,0.12 35.8,1.05 47.39,-2.59 15.4,-4.83 12.08,-21.31 -0.67,-25.86 -7.54,-3.74 -30.07,-3.06 -46.6,-2.92zm-0.21 -47.9c0.13,9.18 0.17,18.36 0.17,27.54 4.57,0.05 15.26,0.29 25.64,-0.02 9.93,-0.29 28.83,1.08 28.16,-13.4 -0.45,-9.89 -9.93,-14.22 -22.92,-14.28 -5.09,-0.02 -23.89,0.25 -31.05,0.16zm-22.82 -21.15c8.69,0.43 17.45,0.23 26.21,0l29.99 0c20.36,1.14 39.13,4.56 43.18,28.69 1.94,11.58 -2.03,23.8 -13.89,29.55 10.72,7.05 20.06,18.65 17.98,32.33 -0.71,16.73 -15.77,29.08 -31.75,30.42 -5.75,0.63 -11.52,0.99 -17.29,1.19l-31.51 0c-7.37,-0.11 -14.73,-0.18 -22.08,0l-0.88 0c0.17,-40.76 0.08,-81.47 0.04,-122.18z"></path> <path class="fil0" d="M1325.43 693.44c0.12,25.34 -1.26,52.88 0.45,78.1 2.27,32.79 59.44,35.97 59.59,0.02l0.31 -78.12 23.26 0c-0.9,27 1.3,56.29 -1.18,83.1 -5.95,55.67 -99.46,54.45 -104.72,-1.5l-0.93 -81.6 23.22 0z"></path> <path class="fil0" d="M1207.64 758.06c8.38,-0.1 16.81,0.39 25.19,0.34 15.08,-0.08 30.67,-1.7 31.02,-21.42 0.27,-14.74 -8.68,-20.02 -21.49,-20.95 -10.21,-0.74 -23.23,-0.53 -34.67,-0.36 0,0 -0.05,42.39 -0.05,42.39zm-23.03 -64.5c6.05,0.16 12.11,0.11 18.17,0l37.83 0c5.09,0.28 10.16,0.75 15.22,1.5 30.62,6.72 41.3,49.52 19.74,71.26 -15.67,17.25 -45.06,12.31 -67.68,13.35l0.25 35.89 -23.53 0 0 -122z"></path> <polygon class="fil0" points="1167.47,715.64 1099.04,715.65 1099.05,743.51 1164.8,743.51 1164.84,765.33 1099.05,765.33 1099.04,792.95 1167.47,792.99 1167.47,815.38 1075.77,815.54 1075.81,693.24 1167.47,693.24 "></polygon> <path class="fil0" d="M982.19 715.42c0.13,12.47 0.21,25.37 0.04,38.22 14.31,-0.13 33.36,0.63 42.97,-0.88 16.23,-4.21 17.4,-30.04 1.63,-35.8 -10.69,-2.29 -29.76,-1.74 -44.64,-1.54zm33.58 -21.74c3.92,0.2 7.82,0.48 11.73,0.88 20.56,2.63 36.46,23.11 33.58,43.76 -0.25,17.15 -14.02,30.5 -30.04,34.42 12.31,14.61 25.16,28.75 38.09,42.81 -4.67,0.08 -9.32,0.14 -13.97,0.19l-15.16 0c-12.19,-13.49 -23.97,-27.34 -35.7,-41.2 -7.39,0.08 -14.73,0.12 -22.07,0.16 0.25,13.69 0.29,27.33 0.46,40.98 -4.35,0.02 -8.69,0.04 -13.03,0.06l-10.46 0c0.12,-40.67 0.08,-81.39 0.04,-122.06l56.53 0z"></path> <path class="fil0" d="M638.57 693.68c10.01,28.94 18.49,58.64 29.05,87.41 9.16,-29.02 18.84,-58.66 28.87,-87.41l15.28 0c10,28.73 19.48,58.84 30.65,87.07 8.55,-28.7 18.26,-58.41 27.21,-87.07l25.95 0c-14.41,40.4 -29.2,81.76 -43.86,122.06l-19.68 0c-10.24,-24.85 -19.24,-50.75 -27.88,-76.16 -8.37,25.49 -17.18,51.39 -27.52,76.16l-18.97 0c-15.57,-40.46 -29.69,-81.6 -45.34,-122.06l26.24 0z"></path> <path class="fil0" d="M386.71 715.63c0.29,25.95 0.13,52.65 0.09,78.6 16.11,-0.31 34.23,1.41 46.72,-6.42 23.87,-15.15 21.74,-57.54 -4.59,-69.05 -11.12,-4.12 -27.49,-3.27 -42.22,-3.13zm-22.99 -21.9c18.61,0.11 34.74,-0.17 51.39,-0.17 80.35,6.03 75.78,116.88 -1.55,122.2l-26.38 0c-7.95,-0.01 -15.56,0.01 -23.58,-0.04l0.12 -121.99z"></path> <polygon class="fil0" points="261.82,693.56 322.25,769.24 321.65,693.56 345.93,693.56 346.13,815.74 330.57,815.74 266.14,732.94 266.89,815.74 243.16,815.74 243.24,693.56 "></polygon> <polygon class="fil0" points="197.22,693.68 220.67,693.68 220.79,818 197.09,818 "></polygon> <path class="fil0" d="M820.69 699.28c23.95,-15.76 67.15,-11.24 83.52,13.85 -6.05,3.13 -12.1,6.21 -18.1,9.34 -12.81,-11.18 -31.67,-17.48 -47.69,-9.22 -8.85,4.09 -11.85,17.82 -1.71,22.32 18.02,7.68 39.47,4.72 56.28,15.73 12.61,8.66 16.42,25.76 11.97,40 -4.46,14.24 -15.12,21.05 -28.97,24.78 -7.47,2.01 -15.54,2.86 -23.22,2.76 -9.42,-0.13 -18.25,-1.71 -24.66,-4.36 -11.55,-4.78 -20.78,-14.32 -27.11,-25.38 6.34,-3.21 12.68,-6.47 19.02,-9.68 12.43,17.9 38.09,24.74 57.03,13.27 9.31,-5.59 9.26,-20.53 -0.87,-25.2 -18.28,-8.43 -40.89,-4.51 -57.37,-17.27 -15.94,-12.19 -14.85,-39.89 1.88,-50.94z"></path> </g> </svg> 